 http://desibbrg.org/images/66952052392581364616.gif 
http://desibbrg.org/images/36710372553964349374.jpg 
http://desibbrg.org/images/25088911705459566831.jpg 
http://desibbrg.org/images/11590382455813859169.jpg 
http://desibbrg.org/images/42183770026929690656.jpg 
http://desibbrg.org/images/45232798081485859153.jpg

Media Info - 
Video
ID : 224 (0xE0)
Format : MPEG Video
Format version : Version 2
Format profile : Main@Main
Format settings, BVOP : Yes
Format settings, Matrix : Default
Duration : 1h 49mn
Bit rate mode : Variable
Bit rate : 667 Kbps
Maximum bit rate : 9 672 Kbps
Width : 352 pixels
Height : 288 pixels
Display aspect ratio : 4:3
Frame rate : 25.000 fps
Standard : PAL
Color space : YUV
Chroma subsampling : 4:2:0
Bit depth : 8 bits
Scan type : Progressive
Compression mode : Lossy
Bits/(Pixel*Frame) : 0.263
Stream size : 523 MiB (82%)

Audio
ID : 192 (0xC0)
Format : MPEG Audio
Format version : Version 1
Format profile : Layer 2
Duration : 1h 49mn
Bit rate mode : Constant
Bit rate : 128 Kbps
Channel(s) : 2 channels
Sampling rate : 48.0 KHz
Compression mode : Lossy
Delay relative to video : -600ms
Stream size : 100 MiB (16%)

Sharer : TJ_DA_KING

Seeding 24x7... Extreme Seeding...


Enjoy!
